HIERARCHY
ROOT Hips
{
	OFFSET 0.000000 0.000000 0.000000
	CHANNELS 6 Xposition Yposition Zposition Zrotation Yrotation Xrotation 
	JOINT LHipJoint
	{
		OFFSET 0.000000 0.000000 0.000000
		CHANNELS 3 Zrotation Yrotation Xrotation
		JOINT LeftUpLeg
		{
			OFFSET 1.363060 -1.794630 0.839290
			CHANNELS 3 Zrotation Yrotation Xrotation
			JOINT LeftLeg
			{
				OFFSET 2.448110 -6.726130 0.000000
				CHANNELS 3 Zrotation Yrotation Xrotation
				JOINT LeftFoot
				{
					OFFSET 2.562200 -7.039590 0.000000
					CHANNELS 3 Zrotation Yrotation Xrotation
					JOINT LeftToeBase
					{
						OFFSET 0.157640 -0.433110 2.322550
						CHANNELS 3 Zrotation Yrotation Xrotation
						End Site
						{
							OFFSET 0.000000 0.000000 0.000000
						}
					}
				}
			}
		}
	}
	JOINT RHipJoint
	{
		OFFSET 0.000000 0.000000 0.000000
		CHANNELS 3 Zrotation Yrotation Xrotation
		JOINT RightUpLeg
		{
			OFFSET -1.305520 -1.794630 0.839290
			CHANNELS 3 Zrotation Yrotation Xrotation
			JOINT RightLeg
			{
				OFFSET -2.542530 -6.985550 0.000000
				CHANNELS 3 Zrotation Yrotation Xrotation
				JOINT RightFoot
				{
					OFFSET -2.568260 -7.056230 0.000000
					CHANNELS 3 Zrotation Yrotation Xrotation
					JOINT RightToeBase
					{
						OFFSET -0.164730 -0.452590 2.363150
						CHANNELS 3 Zrotation Yrotation Xrotation
						End Site
						{
							OFFSET 0.000000 0.000000 0.000000
						}
					}
				}
			}
		}
	}
	JOINT LowerBack
	{
		OFFSET 0.000000 0.000000 0.000000
		CHANNELS 3 Zrotation Yrotation Xrotation
		JOINT Spine
		{
			OFFSET 0.028270 2.035590 -0.193380
			CHANNELS 3 Zrotation Yrotation Xrotation
			JOINT Spine1
			{
				OFFSET 0.056720 2.048850 -0.042750
				CHANNELS 3 Zrotation Yrotation Xrotation
				JOINT Neck
				{
					OFFSET 0.000000 0.000000 0.000000
					CHANNELS 3 Zrotation Yrotation Xrotation
					JOINT Neck1
					{
						OFFSET -0.054170 1.746240 0.172020
						CHANNELS 3 Zrotation Yrotation Xrotation
						JOINT Head
						{
							OFFSET 0.104070 1.761360 -0.123970
							CHANNELS 3 Zrotation Yrotation Xrotation
							End Site
							{
								OFFSET 0.000000 0.000000 0.000000
							}
						}
					}
				}
				JOINT LeftShoulder
				{
					OFFSET 0.000000 0.000000 0.000000
					CHANNELS 3 Zrotation Yrotation Xrotation
					JOINT LeftArm
					{
						OFFSET 3.362410 1.200890 -0.311210
						CHANNELS 3 Zrotation Yrotation Xrotation
						JOINT LeftForeArm
						{
							OFFSET 4.983000 -0.000000 -0.000000
							CHANNELS 3 Zrotation Yrotation Xrotation
							JOINT LeftHand
							{
								OFFSET 3.483560 -0.000000 -0.000000
								CHANNELS 3 Zrotation Yrotation Xrotation
								JOINT LeftFingerBase
								{
									OFFSET 0.000000 0.000000 0.000000
									CHANNELS 3 Zrotation Yrotation Xrotation
									JOINT LeftHandIndex1
									{
										OFFSET 0.715260 -0.000000 -0.000000
										CHANNELS 3 Zrotation Yrotation Xrotation
										End Site
										{
											OFFSET 0.000000 0.000000 0.000000
										}
									}
								}
								JOINT LThumb
								{
									OFFSET 0.000000 0.000000 0.000000
									CHANNELS 3 Zrotation Yrotation Xrotation
									End Site
									{
										OFFSET 0.000000 0.000000 0.000000
									}
								}
							}
						}
					}
				}
				JOINT RightShoulder
				{
					OFFSET 0.000000 0.000000 0.000000
					CHANNELS 3 Zrotation Yrotation Xrotation
					JOINT RightArm
					{
						OFFSET -3.136600 1.374050 -0.404650
						CHANNELS 3 Zrotation Yrotation Xrotation
						JOINT RightForeArm
						{
							OFFSET -5.241900 -0.000000 -0.000000
							CHANNELS 3 Zrotation Yrotation Xrotation
							JOINT RightHand
							{
								OFFSET -3.444170 -0.000000 -0.000000
								CHANNELS 3 Zrotation Yrotation Xrotation
								JOINT RightFingerBase
								{
									OFFSET 0.000000 0.000000 0.000000
									CHANNELS 3 Zrotation Yrotation Xrotation
									JOINT RightHandIndex1
									{
										OFFSET -0.622530 -0.000000 -0.000000
										CHANNELS 3 Zrotation Yrotation Xrotation
										End Site
										{
											OFFSET 0.000000 0.000000 0.000000
										}
									}
								}
								JOINT RThumb
								{
									OFFSET 0.000000 0.000000 0.000000
									CHANNELS 3 Zrotation Yrotation Xrotation
									End Site
									{
										OFFSET 0.000000 0.000000 0.000000
									}
								}
							}
						}
					}
				}
			}
		}
	}
}
MOTION
Frames: 6
Frame Time: 0.008333
-2.005864 16.891164 -0.857192 -164.617550 84.124677 -154.976845 -11.137286 3.205318 -0.308745 -10.411657 -0.258348 1.130442 -1.398029 1.865947 29.517491 0.619727 2.742043 -5.152211 0.079401 0.000000 -63.395899 8.168423 -0.158327 2.983912 4.670393 9.183644 -30.053472 3.054368 -0.253474 9.332262 1.521897 10.279858 9.294935 2.452601 0.000000 -60.537200 5.115789 -3.150356 -2.041948 0.131240 -3.666785 -3.383772 -7.642338 -3.738273 -0.027757 9.904141 -5.943654 -6.498360 -4.732270 -0.369092 0.276790 0.000000 0.000000 0.000000 -6.775286 1.905892 2.098585 -63.097914 -9.879990 14.045619 -2.914613 -34.709304 -0.008356 4.331464 1.461228 0.053219 -0.085934 0.103250 0.000000 0.000000 0.000000 0.000000 0.000000 0.000000 0.000000 20.597368 -4.987015 1.417127 65.046785 -2.730107 -11.130255 4.078787 10.866719 0.005248 -0.592555 2.829358 -0.017282 0.106379 -0.042575 -0.000000 0.000000 0.000000 0.000000 0.000000 0.000000 0.000000 
-1.864098 16.910129 -0.870791 -163.187991 83.572585 -153.616822 -11.373186 3.299187 -0.396143 -9.710856 0.780435 0.055148 -1.187060 2.034543 31.536756 0.656493 3.133140 -3.491897 0.181501 0.000000 -65.989600 8.112230 -0.273917 2.929387 5.220771 8.838951 -29.596449 3.083534 -0.281463 9.644211 1.498441 10.038055 9.365548 2.386900 -0.000000 -59.065300 5.471770 -3.094385 -2.005671 0.195607 -3.633627 -3.395710 -7.609034 -3.706538 -0.046988 9.845858 -5.809391 -6.511859 -4.729047 -0.368978 0.274815 0.000000 0.000000 0.000000 -6.801862 2.068696 2.083385 -63.930641 -9.210802 13.831522 -2.895292 -33.749560 -0.008214 4.334966 1.588044 0.058164 -0.081239 0.099064 0.000000 0.000000 0.000000 0.000000 0.000000 0.000000 0.000000 20.491800 -4.790285 1.414964 65.146779 -2.409599 -10.786224 4.091531 10.967152 0.005375 -0.502417 2.858357 -0.015174 0.106322 -0.043272 -0.000000 0.000000 0.000000 0.000000 0.000000 0.000000 0.000000 
-1.724498 16.929154 -0.883531 -162.206908 82.981656 -152.685012 -11.605193 3.376080 -0.491342 -9.022672 1.904502 -1.169811 -0.965931 2.191521 33.664748 0.722932 3.664686 -1.763418 0.307200 0.000000 -67.643800 8.059135 -0.387164 2.889724 5.737930 8.489158 -29.121907 3.119521 -0.293661 9.873211 1.478505 9.818167 9.314577 2.308600 0.000000 -57.490700 5.797493 -3.042221 -1.979653 0.254621 -3.602481 -3.408627 -7.580579 -3.677097 -0.064438 9.803198 -5.679403 -6.525405 -4.726944 -0.368974 0.272909 0.000000 0.000000 0.000000 -6.801200 2.214234 2.074256 -64.726443 -8.537851 13.636150 -2.875801 -32.794833 -0.008019 4.302854 1.736078 0.063513 -0.076661 0.094895 0.000000 0.000000 0.000000 0.000000 0.000000 0.000000 0.000000 20.408453 -4.596315 1.412904 65.254328 -2.071547 -10.404147 4.101673 11.113496 0.005554 -0.391050 2.911149 -0.012564 0.105996 -0.044075 -0.000000 0.000000 0.000000 0.000000 0.000000 0.000000 0.000000 
-1.587493 16.948175 -0.895305 -161.681840 82.352489 -152.190104 -11.823704 3.431114 -0.590103 -8.388089 3.062239 -2.515146 -0.738682 2.334467 35.871397 0.827971 4.411870 0.002847 0.476900 -0.000000 -68.260301 8.014585 -0.494788 2.858550 6.210984 8.110766 -28.634314 3.160743 -0.291322 10.020916 1.462595 9.631505 9.158560 2.224800 0.000000 -55.915200 6.081523 -2.994922 -1.959774 0.305586 -3.573493 -3.420731 -7.558681 -3.649962 -0.077593 9.779817 -5.557881 -6.542885 -4.727201 -0.369116 0.269824 0.000000 0.000000 0.000000 -6.779727 2.355823 2.071933 -65.470000 -7.893819 13.493692 -2.859066 -31.839358 -0.007771 4.230929 1.899500 0.068665 -0.072392 0.090815 0.000000 0.000000 0.000000 0.000000 0.000000 0.000000 0.000000 20.359125 -4.409167 1.409995 65.359233 -1.715199 -9.965121 4.107905 11.318352 0.005771 -0.267456 2.984569 -0.009653 0.105401 -0.044950 -0.000000 0.000000 0.000000 0.000000 0.000000 0.000000 0.000000 
-1.453122 16.967167 -0.907169 -161.385204 81.679972 -151.896940 -12.036143 3.460382 -0.687460 -7.791929 4.230107 -3.987414 -0.511333 2.463001 38.153066 0.973746 5.401735 1.733579 0.709900 -0.000000 -67.573900 7.967949 -0.599139 2.839779 6.664964 7.721275 -28.138367 3.210347 -0.271209 10.063260 1.448484 9.444727 8.935287 2.131300 -0.000000 -54.409500 6.354930 -2.947820 -1.956203 0.353917 -3.544940 -3.435340 -7.542427 -3.623346 -0.090867 9.763854 -5.445809 -6.560470 -4.729634 -0.369454 0.266881 0.000000 0.000000 0.000000 -6.761811 2.467392 2.076255 -66.147808 -7.245155 13.398631 -2.842405 -30.922868 -0.007462 4.113169 2.082975 0.073522 -0.068259 0.086789 0.000000 0.000000 0.000000 0.000000 0.000000 0.000000 0.000000 20.327421 -4.230402 1.409403 65.457254 -1.337430 -9.502179 4.111935 11.564232 0.006036 -0.133250 3.082779 -0.006241 0.104618 -0.046033 -0.000000 0.000000 0.000000 0.000000 0.000000 0.000000 0.000000 
-1.321925 16.986145 -0.919010 -161.359940 80.968991 -151.859133 -12.231241 3.461265 -0.783233 -7.276151 5.362100 -5.537420 -0.291783 2.577354 40.464739 1.162800 6.679612 3.373352 1.032200 0.000000 -65.622601 7.926293 -0.696427 2.821556 7.088288 7.289709 -27.628929 3.264982 -0.236532 10.012052 1.436052 9.269634 8.663783 2.035101 0.000000 -53.079100 6.601639 -2.902093 -1.953883 0.396205 -3.516080 -3.448447 -7.532783 -3.596399 -0.100994 9.759429 -5.343321 -6.582874 -4.735126 -0.369958 0.262395 0.000000 0.000000 0.000000 -6.749151 2.575324 2.087597 -66.752274 -6.641546 13.390401 -2.829385 -30.023972 -0.007111 3.951021 2.277925 0.077584 -0.064512 0.082939 0.000000 0.000000 0.000000 0.000000 0.000000 0.000000 0.000000 20.324502 -4.059121 1.409624 65.539415 -0.938508 -8.997889 4.112087 11.864503 0.006328 0.001469 3.198438 -0.002628 0.103652 -0.047268 -0.000000 0.000000 0.000000 0.000000 0.000000 0.000000 0.000000 
